<?xml version="1.0" encoding="UTF-8"?>
<svg viewBox="0 0 304.55 373.74" xmlns="http://www.w3.org/2000/svg">
<path d="M226.59,0c1.7,24.86-6.6,46.2-23.61,64-13.71,14.36-30.44,22.65-51.32,22.17,0-5-.65-9.9.11-14.56,5.37-32.78,24-55,54.71-67.15,5.24-2.06,10.93-3,16.42-4.46Z"/>
<path d="M304.55,274.52c-3.12,7.67-5.88,15.31-9.29,22.66a220.91,220.91,0,0,1-40.6,60.2c-7.51,7.86-16.48,13.66-27.56,15.3-10.51,1.55-20.47-.53-30.26-4.42-7.76-3.09-15.59-6.28-23.68-8.2-14.23-3.38-28.25-1.47-41.8,4-4.62,1.85-9.25,3.67-13.86,5.56-20.61,8.42-38.34,3.71-53.4-12.05a230.63,230.63,0,0,1-53.64-91.26C2.93,242.45-1.17,218.11.3,193.06c1.63-27.44,9.51-52.62,28.84-73,18-19,40.25-29.26,66.63-28.46,8.2.24,16.42,3,24.45,5.21a142.25,142.25,0,0,1,18.05,6.81c10.76,4.67,21.19,4.42,32.14.09,11.48-4.54,23.13-9.62,35.18-11.6,35.4-5.83,65.24,4.71,87.6,33.71a17.48,17.48,0,0,1,1,1.53C236,164.55,242.9,246.29,304.55,274.52Z"/>
</svg>
