<?xml version="1.0" encoding="UTF-8"?>
<svg viewBox="0 0 346.78 348" xmlns="http://www.w3.org/2000/svg">
<path d="M346.76,348,153.82,321.07V177.57H342.38c4.4,0,4.4,0,4.4,4.49V348Z"/>
<path d="M153.86,26.92,346.46,0V170.18H153.86Z"/>
<path d="M146.28,320,.18,299.57V177.83h146.1Z"/>
<path d="M146.38,170.19H.28c-.08-1.27-.2-2.37-.2-3.47Q.08,109.49,0,52.28c0-3.37,1.17-4.12,4.27-4.45,8.47-.92,16.9-2.26,25.34-3.46,14.78-2.1,29.54-4.24,44.32-6.31,17.55-2.46,35.11-4.84,52.66-7.27,6.51-.9,13-1.84,19.75-2.79Z"/>
</svg>