<?xml version="1.0" encoding="UTF-8"?>
<svg viewBox="0 0 394.94 390.61" xmlns="http://www.w3.org/2000/svg">
<g data-name="Слой 2">
<g data-name="Слой 1">
<path d="M0,179.51c2.11-25.08,8.24-48.72,19.79-70.64,32.66-62,83.85-98.44,153.33-107.26,99.66-12.66,191.49,50.61,216,147.54,23.3,92-25.55,188.09-114.76,225.8C169.92,419.11,48.71,366.44,10.66,260.33c-1.25-3.49-2.32-7-3.75-11.44,2.08.69,3.34,1,4.53,1.51C34,259.6,56.51,268.86,79.1,278a6.55,6.55,0,0,1,4.34,4.89c7,25,29.21,41.34,55.49,40.9a55.61,55.61,0,0,0,53-42.56,49.53,49.53,0,0,0,1.37-11.57c0-2.91,1.1-4.49,3.35-6.06q29.79-20.84,59.44-41.89a17.28,17.28,0,0,1,10-3.35c39.1-1.43,70.73-34.1,71-73.1.22-37.46-29.25-70-66.51-73.54-40.62-3.81-75,22.28-82,62.18a4.86,4.86,0,0,0-.2,1.23c.9,8.88-3.69,15.49-8.56,22.27-12.51,17.43-24.67,35.11-36.89,52.75-1.47,2.12-2.94,3.17-5.72,3.14a55.56,55.56,0,0,0-28.29,7.63,7.14,7.14,0,0,1-5.26.76C96.23,219,89.06,215.91,81.84,213Z"/>
<path d="m262.46 95.94a49.16 49.16 0 0 1 49.45 49.32c-0.11 26.85-22.51 48.72-49.82 48.63s-49.73-22.37-49.51-49.42 22.49-48.62 49.88-48.53zm-0.15 85.67a36.89 36.89 0 1 0 0.3 -73.78c-20.6-0.1-37.59 16.5-37.66 36.79s16.6 36.93 37.36 36.99z"/>
<path d="m100.15 286.65c8.59 3.49 16.37 6.82 24.27 9.83a30.92 30.92 0 0 0 41.5 -21.56c3.49-14.33-4.11-29-18.25-35.05-7.91-3.38-15.9-6.56-24.08-9.91 13.61-6.84 39.74-2.5 51.11 19.49a41.24 41.24 0 0 1 -19.15 56.29c-20.34 9.72-46.44 1.03-55.4-19.09z"/>
</g>
</g>
</svg>